<svg width="512" height="512" fill="none" xmlns="http://www.w3.org/2000/svg">
  <path fill-rule="evenodd" clip-rule="evenodd" d="M94.3 137.4a8.5 8.5 0 00-11.2 4.3l-12 27c-2 4.3 0 9.3 4.2 11.2l66 29.3L56 400a42.4 42.4 0 1041.5 21.6L187 221.3l.4-.9 12.1-27c2-4.3 0-9.3-4.3-11.2L94.3 137.4zm-33.8 326a21.2 21.2 0 100-42.5 21.2 21.2 0 000 42.4z" fill="#040000"/>
  <rect width="127.1" height="46.7" rx="1" transform="rotate(-65.9 253.3 142.4) skewX(.1)" fill="#0864A6"/>
  <path fill-rule="evenodd" clip-rule="evenodd" d="M374 96.1c1.9-4.2 0-9.2-4.3-11.1l-27.2-12.1a8.5 8.5 0 00-11.2 4.3L302 142.9 110.7 58A42.4 42.4 0 1089 99.5l200.7 89.1 1 .5 27 12c4.4 2 9.4 0 11.3-4.2L374 96zM47.2 62.4a21.2 21.2 0 1042.4 0 21.2 21.2 0 00-42.4 0z" fill="#0864A6"/>
  <rect width="127.3" height="46.6" rx="1" transform="rotate(23.9 45.6 471.2) skewX(-.1)" fill="#040000"/>
  <path fill-rule="evenodd" clip-rule="evenodd" d="M138.4 415c-2 4.3 0 9.3 4.3 11.2l27.1 12c4.3 2 9.3 0 11.2-4.3l29.4-65.7 191.3 85a42.4 42.4 0 1021.6-41.5l-200.8-89.1-.9-.5-27.1-12a8.5 8.5 0 00-11.2 4.3l-45 100.6zm326.8 33.8a21.2 21.2 0 10-42.5 0 21.2 21.2 0 0042.5 0z" fill="#0864A6"/>
  <rect width="127.3" height="46.6" rx="1" transform="rotate(-156.1 210.4 210.9) skewX(-.1)" fill="#040000"/>
  <path fill-rule="evenodd" clip-rule="evenodd" d="M416.7 373.8c4.3 1.9 9.3 0 11.2-4.3l12-27.1c2-4.3 0-9.3-4.2-11.2l-66-29.3L455 111.1a42.4 42.4 0 10-41.5-21.5L324 289.8l-.4.9-12.1 27c-2 4.4 0 9.4 4.3 11.3l100.9 44.8zm33.8-326a21.2 21.2 0 100 42.4 21.2 21.2 0 000-42.4z" fill="#040000"/>
  <rect width="127.1" height="46.7" rx="1" transform="rotate(114.1 182 257) skewX(.1)" fill="#0864A6"/>
</svg>
