<svg width="57" height="57" fill="none" xmlns="http://www.w3.org/2000/svg" opacity="0.04"><path fill-rule="evenodd" clip-rule="evenodd" d="M10 14.5a1 1 0 00-1.4.5l-1.4 3.2a1 1 0 00.5 1.3l7.8 3.4-10 22.6a5 5 0 104.8 2.5L21 24.4v-.1l1.4-3.2a1 1 0 00-.5-1.3L10 14.5zM6 52.9a2.5 2.5 0 100-5 2.5 2.5 0 000 5z" fill="#040000"/><rect x="1.2" y="35.5" width="15" height="5.5" rx="1" transform="rotate(-66 1.2 35.5)" fill="#0865A7"/><path fill-rule="evenodd" clip-rule="evenodd" d="M42.9 9.6a1 1 0 00-.5-1.3l-3.2-1.4a1 1 0 00-1.3.5L34.4 15l-22.5-10A5 5 0 109.3 10L33 20.5l3.3 1.5a1 1 0 001.3-.5l5.3-11.9zm-38.5-4a2.5 2.5 0 105 0 2.5 2.5 0 00-5 0z" fill="#0865A7"/><rect x="21.8" y=".9" width="15" height="5.5" rx="1" transform="rotate(24 21.8 .9)" fill="#040000"/><path fill-rule="evenodd" clip-rule="evenodd" d="M15.1 47.2a1 1 0 00.5 1.4l3.2 1.4a1 1 0 001.4-.5l3.4-7.8 22.5 10a5 5 0 102.6-4.8L25 36.3l-3.3-1.4a1 1 0 00-1.3.5l-5.3 11.8zm38.5 4a2.5 2.5 0 10-5 0 2.5 2.5 0 005 0z" fill="#0865A7"/><rect x="36.2" y="56" width="15" height="5.5" rx="1" transform="rotate(-156 36.2 56)" fill="#040000"/><path fill-rule="evenodd" clip-rule="evenodd" d="M47.9 42.4a1 1 0 001.3-.5l1.4-3.2a1 1 0 00-.5-1.4L42.4 34l10-22.5a5 5 0 10-4.9-2.6L37 32.5l-1.5 3.3A1 1 0 0036 37L48 42.4zm4-38.5a2.5 2.5 0 100 5 2.5 2.5 0 000-5z" fill="#040000"/><rect x="56.6" y="21.3" width="15" height="5.5" rx="1" transform="rotate(114 56.6 21.3)" fill="#0865A7"/></svg>
